<svg width="542" height="250" viewBox="0 0 542 250" fill="none" xmlns="http://www.w3.org/2000/svg">
<path d="M304.133 134.203C302.476 138.432 307.359 141.629 307.359 141.629C308.764 135.169 304.133 134.203 304.133 134.203Z" fill="url(#paint0_radial_269_793)"/>
<path d="M299.748 131.538C299.774 131.566 299.828 131.568 299.83 131.514C300.597 129.641 300.484 127.279 300.403 126.463C301.982 128.843 303.186 131.452 303.971 134.198L304.049 134.282C304.066 134.269 304.079 134.253 304.089 134.235C304.099 134.216 304.105 134.196 304.107 134.175C303.633 132.433 302.97 130.748 302.131 129.149C302.923 129.363 303.686 129.67 304.405 130.065C304.822 133.874 310.71 133.715 310.71 133.715C309.266 128.977 305.232 129.658 304.491 129.932C303.717 129.52 302.9 129.193 302.056 128.957C301.555 127.979 300.988 127.037 300.359 126.136L300.333 126.108C297.061 121.34 292.664 117.453 287.53 114.79L290.123 115.092L290.149 115.12C290.899 115.559 291.673 115.956 292.469 116.307C295.964 118.022 301.808 120.843 308.026 126.307C311.156 129.023 314.75 131.152 318.636 132.592L318.662 132.62C320.157 133.57 321.36 134.913 322.14 136.503C322.112 136.529 322.166 136.531 322.166 136.531C320.559 139.243 324.588 141.192 324.588 141.192C324.26 137.142 322.252 136.398 322.252 136.398C321.52 134.968 320.465 133.727 319.172 132.773C321.099 133.493 323.102 133.996 325.141 134.27L325.197 134.218C327.161 136.315 330.753 134.265 330.753 134.265C327.467 130.307 325.433 133.629 325.173 134.135L325.146 134.108C323.052 133.817 320.996 133.295 319.017 132.551C320.488 132.328 322.837 130.968 322.947 130.918C323.057 130.867 322.975 130.891 322.977 130.837C322.979 130.783 325.831 131.419 326.781 127.275C326.781 127.275 322.959 126.445 322.87 130.78C322.676 130.909 320.053 132.368 318.721 132.46C314.828 131.036 311.231 128.905 308.112 126.174C301.893 120.711 296.023 117.861 292.5 116.173L290.5 115.158L290.527 115.186C298.456 116.423 305.471 119.093 311.682 121.466L317.441 123.58C319.029 124.121 320.672 124.484 322.34 124.662C322.366 124.69 326.926 125.355 328.736 127.177L328.789 127.233C330.083 130.745 337.857 131.76 337.857 131.76C335.932 126.004 329.479 126.849 328.82 127.098C327.559 125.864 325.17 125.162 323.69 124.815C329.885 125.209 336.52 123.773 341.2 122.436C342.114 123.308 342.894 124.312 343.515 125.412L343.567 125.468C343.621 125.47 343.623 125.416 343.625 125.362C343.004 124.276 342.234 123.284 341.336 122.413C341.579 122.347 341.818 122.264 342.049 122.165C343.541 122.973 345.292 124.956 345.318 124.984L345.426 124.987L345.43 124.879C345.404 124.851 343.731 122.952 342.24 122.144C345.226 121.185 347.205 120.383 347.425 120.282C351.823 125.035 356.208 117.832 356.208 117.832C347.937 113.765 347.432 119.225 347.402 120.145C347.348 120.143 344.983 121.15 341.398 122.198C342.512 120.473 343.583 116.74 343.592 116.469C349.246 116.844 347.645 109.472 347.645 109.472C342.289 110.76 343.345 115.756 343.514 116.385C343.503 116.384 343.492 116.385 343.482 116.389C343.471 116.392 343.462 116.398 343.454 116.405C343.446 116.413 343.44 116.422 343.436 116.432C343.431 116.442 343.429 116.453 343.43 116.463C343.451 116.654 342.316 120.656 341.205 122.273C336.251 123.71 329.125 125.238 322.64 124.591C325.087 123.56 327.491 120.521 327.497 120.359C328.04 120.322 333.498 120.041 335.001 113.909C335.001 113.909 328.474 114.562 327.472 120.277L327.446 120.249C327.435 120.248 327.424 120.249 327.414 120.252C327.404 120.256 327.394 120.262 327.386 120.269C327.378 120.276 327.372 120.286 327.368 120.296C327.364 120.306 327.362 120.316 327.362 120.327C327.273 120.568 324.757 123.712 322.315 124.58C320.667 124.392 319.043 124.03 317.471 123.499L313.483 121.932C314.874 121.679 316.848 120.199 316.932 120.12C317.016 120.042 316.96 120.094 316.961 120.04C316.963 119.986 321.779 119.466 323.301 113.579C323.301 113.579 317.054 114.756 316.909 119.984C316.855 119.982 316.855 119.982 316.827 120.008C316.799 120.034 314.492 121.775 313.162 121.813L311.824 121.281C305.719 118.966 298.811 116.353 291.046 115.068C293.366 114.575 295.937 113.06 298.187 111.426C298.213 111.454 298.213 111.454 298.241 111.427C299.131 110.752 300.02 110.076 300.774 109.423C302.736 109.108 303.594 109.407 303.62 109.435C303.646 109.463 303.648 109.409 303.702 109.411C304.689 113.212 309.683 112.21 309.683 112.21C307.941 108.276 303.982 109.149 303.679 109.275C303.377 109.4 302.822 108.975 300.996 109.268C302.837 107.702 304.097 106.469 304.125 106.443C304.153 106.417 304.153 106.417 304.155 106.362C304.157 106.308 308.62 106.591 310.82 101.539C310.82 101.539 304.436 101.112 304.102 106.307C304.048 106.305 304.048 106.305 304.02 106.331C302.213 108.091 300.284 109.721 298.248 111.211C298.432 109.846 298.459 108.464 298.329 107.093L298.303 107.065C300.148 102.083 297.636 99.3438 297.636 99.3438C295.312 104.879 297.718 106.72 298.223 107.035L298.167 107.088L298.193 107.115C298.321 108.523 298.293 109.94 298.108 111.342C295.748 113.026 293.013 114.59 290.614 114.999C282.983 113.751 275.175 114.123 267.698 116.09L266.221 116.475L266.189 116.61L267.72 116.226C267.808 116.196 267.9 116.18 267.993 116.181L268.458 116.061C274.564 114.528 280.891 114.076 287.153 114.723C289.682 115.968 292.037 117.54 294.156 119.399C296.486 121.375 298.536 123.658 300.249 126.187C300.265 126.54 300.553 129.314 299.723 131.456C296.137 134.185 298.804 139.613 298.804 139.613C300.994 136.513 299.866 132.057 299.748 131.538Z" fill="url(#paint1_radial_269_793)"/>
<path d="M345.645 124.942C345.618 125.406 345.649 125.871 345.735 126.328C344.678 125.48 343.819 125.235 343.789 125.315C342.833 131.302 349.891 135.139 349.891 135.139C349.753 133.312 349.288 131.525 348.519 129.862C351.295 131.2 355.083 130.593 355.083 130.593C351.252 124.259 345.652 124.725 345.645 124.942Z" fill="url(#paint2_radial_269_793)"/>
<path d="M469.911 50.1072C469.827 50.1428 469.752 50.1957 469.689 50.2625C469.577 50.3673 469.439 50.4441 469.299 50.575C467.221 52.2083 465.025 53.6856 462.729 54.9949C460.614 56.2272 458.413 57.3055 456.144 58.2215C454.578 58.8478 452.931 59.4444 451.315 59.9606C451.042 60.0058 450.188 60.4386 449.947 60.3494C449.299 60.2738 448.432 60.2454 447.295 60.208C443.421 60.1079 436.894 59.9206 428.976 57.5188C425.017 56.311 420.867 55.8529 416.739 56.168L416.713 56.14C414.962 55.8499 413.315 55.1143 411.931 54.0039L411.905 53.9759C412.251 50.8696 407.782 50.7499 407.782 50.7499C409.752 54.3118 411.899 54.1384 411.899 54.1384C413.123 55.1756 414.594 55.8778 416.17 56.1763C414.122 56.353 412.094 56.7221 410.115 57.2787L410.059 57.3311C407.411 56.241 404.97 59.5767 404.97 59.5767C409.613 61.8437 410.066 57.9548 410.138 57.415L410.164 57.443C412.185 56.8177 414.272 56.4314 416.383 56.2918C415.135 57.1454 413.545 59.3162 413.488 59.4227C413.43 59.5293 413.432 59.4751 413.458 59.5031C413.484 59.531 410.645 60.1426 411.51 64.3188C411.51 64.3188 415.332 63.5226 413.594 59.4804C413.708 59.3215 415.523 56.887 416.708 56.3024C420.835 56.016 424.979 56.4736 428.944 57.6533C436.889 60.083 443.39 60.2424 447.289 60.3705L449.536 60.4714C449.51 60.4434 449.51 60.4435 449.482 60.4696C441.713 62.6001 434.243 63.0324 427.614 63.4653C425.469 63.5846 423.403 63.7336 421.501 63.888C419.829 64.0441 418.18 64.3901 416.587 64.9193C416.533 64.9176 412.127 66.1554 409.717 65.263C409.691 65.235 409.663 65.2612 409.635 65.2874C407.04 62.5725 399.51 64.8463 399.51 64.8463C403.646 69.3197 409.18 65.9231 409.659 65.3695L409.685 65.3975C411.319 66.0204 413.77 65.6672 415.299 65.3379C409.48 67.5324 404.033 71.5825 400.295 74.7671C400.054 74.6779 398.1 73.9359 396.993 72.9778C396.912 72.9481 396.884 72.9743 396.856 73.0005L396.909 73.0564C397.963 73.9586 399.783 74.669 400.211 74.8457C400.639 75.0224 399.822 75.1582 399.654 75.3154C397.977 75.206 395.571 74.1511 395.517 74.1493C395.463 74.1475 395.437 74.1196 395.435 74.1737C395.433 74.2279 395.405 74.2541 395.46 74.2558C395.514 74.2576 397.811 75.309 399.486 75.4725C397.168 77.538 395.68 79.0886 395.512 79.2457C389.575 76.7735 388.542 85.0893 388.542 85.0893C397.722 85.418 395.94 80.2629 395.589 79.3838C395.645 79.3314 397.386 77.491 400.204 75.0624C399.922 77.0592 400.473 80.8997 400.572 81.1741C395.276 83.1418 399.765 89.2263 399.765 89.2263C404.134 85.8184 401.098 81.6794 400.707 81.2056C400.722 81.1918 400.731 81.1725 400.731 81.1522C400.732 81.1319 400.724 81.1122 400.711 81.0973C400.636 80.9051 400.011 76.8181 400.372 74.9052C404.277 71.5635 410.14 67.2288 416.335 65.1551C414.538 67.0479 413.573 70.8387 413.648 71.0309C413.723 71.2231 408.326 73.7568 409.477 79.9756C409.477 79.9756 415.141 76.7188 413.728 71.0607C413.782 71.0624 413.784 71.0083 413.786 70.9541C413.788 70.8999 414.762 66.8384 416.638 65.0294C418.22 64.499 419.86 64.1614 421.523 64.0242C422.911 63.8801 424.378 63.7656 425.872 63.6791C424.708 64.4542 423.524 66.6654 423.494 66.7457C423.464 66.8261 423.492 66.7999 423.464 66.8261C423.436 66.8523 419.315 69.3465 420.338 75.3171C420.338 75.3171 425.582 71.667 423.573 66.8297C423.599 66.8576 423.599 66.8576 423.601 66.8035C423.602 66.7493 424.986 64.2464 426.225 63.6636L427.665 63.5754C434.184 63.1931 441.519 62.7292 449.176 60.7036C447.232 62.1037 445.525 64.5417 444.117 66.9624C443.57 67.9475 443.05 68.9063 442.615 69.7866C440.977 70.9528 440.026 71.0029 440.026 71.0029C437.497 67.9648 433.387 70.9203 433.387 70.9203C436.574 73.7631 439.851 71.3767 440.077 71.113C440.303 70.8493 440.973 71.0611 442.526 70.0277C441.478 72.2163 440.855 73.8495 440.853 73.9037L440.879 73.9316C440.358 74.1043 436.704 75.5837 436.767 81.089C436.767 81.089 442.75 78.8457 440.931 73.9876L440.987 73.9352C441.904 71.58 442.994 69.2961 444.248 67.1022C444.661 68.4162 445.2 69.6869 445.859 70.8963C445.885 70.9242 445.885 70.9242 445.913 70.898C446.253 76.1956 449.701 77.6915 449.701 77.6915C449.52 71.6672 446.615 70.9753 445.995 70.8736C446.002 70.8667 446.007 70.8571 446.007 70.8469C446.007 70.8368 446.004 70.8269 445.997 70.8195C445.295 69.5993 444.746 68.2975 444.362 66.9433C445.774 64.4143 447.647 61.8733 449.671 60.503C457.122 58.4998 464.071 54.9606 470.074 50.1125C470.492 49.7738 470.881 49.4613 471.297 49.1768L471.249 49.0125L469.911 50.1072Z" fill="url(#paint3_radial_269_793)"/>
<path d="M395.298 74.1961C395.139 73.7602 394.915 73.3507 394.634 72.9814C395.979 73.2967 396.851 73.1627 396.826 73.0805C395.23 67.2266 387.252 66.6121 387.252 66.6121C388.112 68.2339 389.269 69.6791 390.664 70.872C387.549 70.7967 384.36 72.9421 384.36 72.9421C390.459 77.1004 395.373 74.3883 395.298 74.1961Z" fill="url(#paint4_radial_269_793)"/>
<path d="M241.016 100.601C240.988 100.627 239.047 102.759 237.763 103.069L236.307 102.805C230.188 101.763 223.341 100.562 215.911 100.644L215.933 100.78C223.364 100.699 230.21 101.9 236.302 102.967C238.432 103.335 240.453 103.7 242.369 103.953C244.031 104.161 245.709 104.207 247.38 104.09C247.406 104.118 251.994 103.917 254.144 105.316C254.171 105.343 254.17 105.343 254.198 105.317C256.125 108.552 263.976 108.078 263.976 108.078C261.005 102.776 254.81 104.849 254.202 105.209C252.77 104.24 250.284 103.996 248.713 103.944C254.92 103.172 261.134 100.503 265.491 98.2602C265.677 98.4019 267.426 99.598 268.31 100.766C268.324 100.78 268.343 100.789 268.363 100.79C268.383 100.79 268.403 100.783 268.418 100.769C268.446 100.743 268.474 100.717 268.422 100.661C267.617 99.7034 266.676 98.8688 265.63 98.1835C265.85 98.0823 266.072 97.9269 266.292 97.8257C267.903 98.3123 269.991 99.9262 270.017 99.9542C270.043 99.9821 270.126 99.9577 270.127 99.9036C270.129 99.8494 270.129 99.8494 270.103 99.8214C270.077 99.7935 268.093 98.2915 266.458 97.7227C268.094 96.89 269.681 95.9646 271.212 94.951C276.4 98.7542 279.37 90.8815 279.37 90.8815C270.477 88.4477 271.029 93.9149 271.161 94.8409C271.079 94.8654 268.945 96.2862 265.663 97.9948C266.403 96.0943 266.72 92.2281 266.675 91.9555C272.31 91.246 269.339 84.3167 269.339 84.3167C264.302 86.6182 266.317 91.2931 266.568 91.8977C266.54 91.9239 266.54 91.9239 266.539 91.9781C266.537 92.0323 266.234 96.3056 265.443 98.096C260.892 100.468 254.182 103.338 247.684 103.91C249.846 102.463 251.667 99.026 251.647 98.8356C251.626 98.6451 257.469 97.3732 257.758 91.0661C257.758 91.0661 251.488 92.9476 251.594 98.7796L251.568 98.7517C251.557 98.7506 251.546 98.7519 251.536 98.7554C251.526 98.7589 251.516 98.7646 251.508 98.772C251.5 98.7794 251.494 98.7885 251.49 98.7985C251.486 98.8086 251.484 98.8194 251.484 98.8302C251.449 99.0731 249.596 102.645 247.357 103.954C245.697 104.093 244.026 104.057 242.373 103.844L238.032 103.132C239.349 102.634 241.009 100.818 241.066 100.711C241.124 100.604 241.122 100.659 241.096 100.631C241.07 100.603 245.727 99.1291 246.115 93.0964C246.115 93.0964 240.182 95.4498 241.016 100.601Z" fill="url(#paint5_radial_269_793)"/>
<path d="M270.18 99.9616C270.243 100.422 270.365 100.872 270.542 101.302C269.342 100.693 268.45 100.637 268.474 100.719C268.627 106.769 276.301 109.19 276.301 109.19C275.815 107.433 275.026 105.774 273.968 104.288C276.952 105.064 280.547 103.745 280.547 103.745C275.576 98.2683 270.159 99.7712 270.18 99.9616Z" fill="url(#paint6_radial_269_793)"/>
<path d="M393.889 165.646C393.915 165.674 393.943 165.648 393.917 165.62C393.891 165.592 394.929 162.888 396.039 162.111L397.458 161.832C403.546 160.541 410.371 159.085 417.241 156.274L417.136 156.162C410.294 158.946 403.469 160.403 397.435 161.696C395.307 162.114 393.287 162.536 391.427 163.017C389.807 163.419 388.233 163.995 386.735 164.733C386.707 164.759 382.525 166.628 379.994 166.111C379.968 166.083 379.94 166.109 379.912 166.135C376.95 163.869 369.846 167.214 369.846 167.214C374.546 171.002 379.563 166.829 379.962 166.246C381.658 166.599 384.067 165.92 385.548 165.372C380.081 168.391 375.288 173.195 372.076 176.885C371.835 176.795 369.761 176.375 368.512 175.602C368.486 175.574 368.432 175.572 368.43 175.626C368.423 175.633 368.417 175.641 368.413 175.65C368.409 175.66 368.406 175.67 368.406 175.68C368.406 175.69 368.407 175.7 368.411 175.709C368.414 175.719 368.42 175.727 368.427 175.734C369.541 176.316 370.732 176.738 371.964 176.989C371.817 177.185 371.657 177.37 371.485 177.543C369.799 177.704 367.246 176.997 367.246 176.997C367.246 176.997 367.138 176.993 367.136 177.048C367.135 177.058 367.137 177.069 367.14 177.08C367.144 177.09 367.149 177.099 367.157 177.107C367.164 177.115 367.173 177.121 367.183 177.126C367.193 177.13 367.204 177.132 367.215 177.131C367.215 177.131 369.66 177.781 371.343 177.728C369.367 180.103 368.117 181.851 367.975 182.036C361.737 180.476 361.922 188.859 361.922 188.859C371.064 187.858 368.541 182.977 368.052 182.174C368.108 182.122 369.559 180.028 371.985 177.18C371.971 179.24 373.123 182.937 373.277 183.213C368.308 185.924 373.635 191.277 373.635 191.277C377.454 187.282 373.859 183.666 373.385 183.217C373.4 183.203 373.409 183.184 373.41 183.164C373.41 183.143 373.403 183.124 373.389 183.109C373.286 182.943 372.06 178.999 372.152 177.023C375.506 173.148 380.691 167.977 386.482 165.023C385 167.197 384.601 171.088 384.704 171.254C384.807 171.42 379.819 174.726 381.899 180.704C381.899 180.704 387.021 176.644 384.758 171.256C384.785 171.284 384.785 171.284 384.813 171.257C384.841 171.231 384.869 171.205 384.842 171.177C384.816 171.149 385.172 166.932 386.784 164.897C388.269 164.144 389.835 163.559 391.45 163.153C392.817 162.818 394.237 162.485 395.738 162.182C394.677 163.123 393.84 165.482 393.811 165.562C393.807 165.565 393.804 165.569 393.802 165.574C393.8 165.579 393.799 165.584 393.799 165.589C393.798 165.594 393.799 165.599 393.801 165.603C393.803 165.608 393.805 165.612 393.809 165.616C393.335 166.007 390.073 168.746 391.944 174.501C391.944 174.501 396.561 170.125 393.889 165.646Z" fill="url(#paint7_radial_269_793)"/>
<path d="M367.028 177.043C366.794 176.642 366.515 176.269 366.197 175.931C367.575 176.058 368.425 175.788 368.4 175.706C365.981 170.15 357.964 170.727 357.964 170.727C359.044 172.211 360.402 173.471 361.963 174.437C358.886 174.851 356.036 177.414 356.036 177.414C362.68 180.641 367.157 177.237 367.028 177.043Z" fill="url(#paint8_radial_269_793)"/>
<path d="M363.109 144.546C363.102 144.553 363.097 144.562 363.097 144.573C363.097 144.583 363.1 144.593 363.107 144.6C363.107 144.6 363.691 147.466 363.136 148.667L362.073 149.663C357.568 153.934 352.503 158.728 348.13 164.766L348.264 164.797C352.636 158.814 357.673 154.045 362.178 149.775C363.744 148.308 365.255 146.894 366.601 145.528C367.77 144.315 368.813 142.987 369.714 141.564C369.742 141.538 372.307 137.718 374.72 136.876L374.776 136.823C378.533 137.191 382.816 130.608 382.816 130.608C376.795 129.841 374.749 136.009 374.698 136.74C373.025 137.308 371.364 139.178 370.403 140.394C373.455 134.964 375.054 128.374 375.837 123.547C376.111 123.448 378.086 122.754 379.55 122.748C379.561 122.749 379.572 122.747 379.582 122.744C379.592 122.74 379.602 122.735 379.61 122.727C379.618 122.72 379.624 122.711 379.628 122.701C379.632 122.691 379.634 122.68 379.634 122.669L379.582 122.613C378.172 122.621 376.335 123.238 375.896 123.387L376.002 122.658C377.363 121.646 379.881 120.915 379.936 120.917C379.952 120.904 379.966 120.888 379.975 120.87C379.985 120.851 379.991 120.831 379.993 120.81L379.915 120.726C379.887 120.753 377.451 121.459 376.037 122.415C376.347 120.61 376.552 118.788 376.65 116.959C382.84 115.048 378.274 107.985 378.274 107.985C371.012 113.629 375.717 116.468 376.543 116.902C376.422 119.011 376.181 121.112 375.821 123.194C374.739 121.478 371.842 118.889 371.575 118.772C374.395 113.822 367.053 112.035 367.053 112.035C365.898 117.474 370.847 118.666 371.493 118.796C372.139 118.926 371.491 118.85 371.517 118.878C371.544 118.906 374.812 121.725 375.786 123.437C374.915 128.505 373.217 135.606 369.808 141.16C369.95 138.508 368.248 135.01 368.062 134.922C368.322 134.416 370.412 129.415 365.529 125.378C365.529 125.378 363.294 131.512 368.007 134.92C368.006 134.974 368.004 135.029 368.032 135.002C368.06 134.976 369.939 138.833 369.665 141.4C368.773 142.814 367.74 144.134 366.58 145.338C365.599 146.309 364.563 147.332 363.444 148.379C363.841 147.01 363.352 144.581 363.328 144.499L363.275 144.443C363.483 143.88 364.837 139.831 360.221 135.912C360.138 135.99 358.498 142.144 363.109 144.546Z" fill="url(#paint9_radial_269_793)"/>
<path d="M380.047 120.811C380.472 121.011 380.91 121.179 381.359 121.315C380.12 121.898 379.555 122.584 379.608 122.64C384.59 126.111 391.115 121.419 391.115 121.419C389.408 120.743 387.592 120.38 385.756 120.348C388.15 118.421 389.275 114.744 389.275 114.744C381.905 115.45 379.86 120.724 380.047 120.811Z" fill="url(#paint10_radial_269_793)"/>
<path d="M202.031 127.813C202.059 127.787 203.71 125.401 204.972 124.955L206.406 125.029C212.631 125.342 219.586 125.706 226.965 124.728L226.86 124.617C219.509 125.568 212.58 125.232 206.409 124.921C204.245 124.795 202.188 124.674 200.265 124.637C198.585 124.627 196.908 124.79 195.261 125.124C195.207 125.122 190.681 125.895 188.388 124.735C188.361 124.707 188.333 124.733 188.305 124.76C186.019 121.757 178.273 123.183 178.273 123.183C181.879 128.1 187.772 125.311 188.302 124.868C189.876 125.652 192.372 125.571 193.922 125.432C187.881 126.942 182.021 130.382 177.973 133.122C177.733 132.979 175.866 132.05 174.845 130.959C174.838 130.952 174.83 130.946 174.821 130.942C174.811 130.938 174.801 130.935 174.791 130.935C174.781 130.935 174.771 130.936 174.762 130.94C174.752 130.943 174.744 130.949 174.737 130.956L174.733 131.064C175.702 132.099 177.435 132.996 177.835 133.199L177.197 133.639C175.553 133.341 173.293 131.993 173.238 131.991C173.184 131.989 173.184 131.989 173.156 132.015C173.128 132.042 173.127 132.096 173.181 132.097C173.235 132.099 175.388 133.39 177.03 133.742C174.505 135.53 172.86 136.912 172.692 137.07C167.047 133.956 165.071 142.106 165.071 142.106C174.162 143.462 172.983 138.109 172.714 137.206C172.722 137.199 172.732 137.195 172.742 137.196C172.752 137.196 172.762 137.2 172.769 137.208C172.825 137.155 174.777 135.484 177.829 133.362C177.302 135.378 177.446 139.232 177.546 139.506C172.024 140.897 175.821 147.42 175.821 147.42C180.525 144.538 177.987 140.09 177.626 139.536C177.68 139.538 177.654 139.51 177.682 139.484C177.71 139.457 177.445 135.138 177.995 133.259C182.265 130.363 188.594 126.694 194.955 125.358C192.974 127.055 191.607 130.697 191.628 130.887C191.649 131.078 186.055 133.008 186.498 139.312C186.498 139.312 192.494 136.69 191.68 130.943L191.707 130.971C191.723 130.958 191.737 130.942 191.747 130.924C191.756 130.905 191.763 130.885 191.764 130.864C191.772 130.648 193.196 126.899 195.255 125.286C196.895 124.973 198.562 124.818 200.232 124.826C201.614 124.844 203.076 124.892 204.591 124.996C203.35 125.633 201.9 127.673 201.87 127.754L201.814 127.806C201.292 128.033 197.41 129.83 197.752 135.914C197.862 135.863 203.466 132.821 202.031 127.813Z" fill="url(#paint11_radial_269_793)"/>
<path d="M173.161 131.908C173.012 131.467 172.836 131.036 172.634 130.616C173.892 131.119 174.788 131.067 174.764 130.985C173.876 124.991 165.982 123.512 165.982 123.512C166.649 125.209 167.639 126.76 168.895 128.081C165.845 127.682 162.398 129.44 162.398 129.44C167.986 134.286 173.208 132.126 173.161 131.908Z" fill="url(#paint12_radial_269_793)"/>
<path d="M410.782 111.14C410.81 111.114 410.838 111.087 410.865 111.115C413.308 112.66 415.809 115.724 416.38 116.502C417.489 111.631 415.345 105.136 415.32 105.054C415.296 104.971 415.324 104.945 415.406 104.921C415.488 104.896 415.514 104.924 415.539 105.007C415.563 105.089 417.314 110.378 416.836 115.026C419.029 107.67 420.818 101.114 420.849 100.979L420.905 100.927C418.079 94.5443 426.486 89.507 426.486 89.507C427.721 98.1143 421.723 100.791 421.036 101.066C420.349 101.342 419.987 104.936 418.67 109.528C420.145 108.407 421.905 107.723 423.75 107.554L423.777 107.582C424.186 106.673 427.589 99.6552 436.266 103.708C436.266 103.708 429.086 112.636 423.825 107.746L423.769 107.798C420.944 107.976 418.715 109.801 418.576 109.932C417.994 111.946 417.351 114.175 416.653 116.456C417.102 116.101 417.584 115.79 418.093 115.528C418.387 114.832 420.249 110.99 426.075 113.513C426.075 113.513 422.167 116.963 418.222 115.722C417.612 116.012 417.051 116.396 416.558 116.86C414.55 123.517 412.285 130.572 410.738 133.91C412.509 131.99 414.284 129.96 416.116 127.825C423.413 119.235 432.424 112.264 442.571 107.359C445.092 104.893 447.018 100.727 448.452 96.7079C447.503 94.8762 446.34 93.1636 444.987 91.6059L444.935 91.5499C444.066 91.5756 439.683 91.3232 437.794 82.8029C437.794 82.8029 443.122 84.0081 445.073 91.4731C445.08 91.4806 445.089 91.4849 445.099 91.4852C445.11 91.4856 445.119 91.4819 445.127 91.4749C446.426 93.0106 447.552 94.684 448.487 96.465C449.706 92.9993 450.639 89.4394 451.277 85.8213L451.361 85.7427C447.427 79.2427 455.368 74.3798 455.368 74.3798C457.007 82.2413 452.132 85.3885 451.495 85.7742L451.548 85.8302C451.546 85.8843 451.083 88.4174 450.158 91.8029C452.09 89.9416 453.294 89.6016 453.376 89.5772C453.459 89.5528 457.653 84.8379 462.996 88.0768C462.996 88.0768 457.885 93.4393 453.479 89.7432C453.506 89.7712 453.478 89.7974 453.423 89.7956C453.369 89.7938 452.083 90.1582 450.036 92.2326C449.665 93.6301 449.208 95.1603 448.668 96.715L448.612 96.7674C447.266 100.6 445.429 104.525 443.095 107.078C453.48 102.078 463.895 99.4653 473.135 97.1121C473.819 96.9448 474.502 96.7775 475.159 96.5822C476.743 95.4143 478.014 91.3896 478.042 91.3634C478.07 91.3372 478.071 91.2831 478.098 91.3111C473.916 84.9384 480.397 78.2926 480.397 78.2926C483.513 86.555 478.902 90.7681 478.206 91.3146L478.285 91.3985C478.225 91.5592 477.136 94.9935 475.652 96.4357C477.812 95.8832 479.889 95.355 481.833 94.7953C484.161 94.095 486.409 93.1511 488.54 91.9794C490.756 88.9075 491.111 83.0635 491.015 82.6808C490.919 82.2981 490.99 82.5986 491.046 82.5462L491.072 82.5742C487.503 74.8934 494.73 68.6516 494.73 68.6516C498.052 77.2461 491.819 82.1379 491.179 82.6319C491.334 82.8539 490.985 88.5355 488.926 91.7752C497.213 87.1135 504.463 79.3272 509.156 73.4631C509.116 70.561 507.133 64.9113 506.98 64.6351C506.826 64.359 506.955 64.553 506.983 64.5268C506.273 63.88 500.8 58.8204 506.151 52.761C506.151 52.761 514.2 60.2366 507.146 64.5322C507.352 64.8642 509.209 70.2116 509.356 73.1714C512.748 68.9453 514.722 65.7841 514.806 65.7056C514.058 64.5695 510.084 57.6344 523.327 55.5754C523.327 55.5754 524.144 67.8287 514.909 65.8716C514.764 66.165 513.024 68.7917 510.249 72.3875C512.723 72.1705 516.329 72.9938 516.357 72.9676L516.461 73.0795C516.459 73.1077 516.446 73.134 516.425 73.1533C516.405 73.1726 516.378 73.1836 516.35 73.1843C516.295 73.1825 512.529 72.2997 510.107 72.5726C509.908 72.8642 509.654 73.1541 509.455 73.4458C510.101 73.5754 512.849 74.0995 514.661 75.0807C514.713 75.1366 514.739 75.1646 514.709 75.245C514.68 75.3253 514.599 75.2956 514.573 75.2676C512.655 74.2287 509.637 73.6957 509.259 73.6291C504.82 79.2034 498.128 86.4658 490.356 91.1716C492.444 90.3184 495.897 89.1849 498.432 89.5934C498.976 88.7167 506.018 82.3332 513.11 87.6086C513.11 87.6086 502.959 92.9139 498.481 89.7577C498.467 89.7731 498.45 89.7856 498.431 89.7943C498.412 89.803 498.392 89.8078 498.371 89.8083C494.678 89.1719 488.697 92.1472 488.641 92.1996C488.634 92.1922 488.625 92.1878 488.614 92.1875C488.604 92.1872 488.594 92.1909 488.587 92.1978C486.462 93.3814 484.213 94.3258 481.88 95.0137C479.143 95.7914 476.272 96.5374 473.182 97.3306C463.806 99.7064 453.199 102.394 442.674 107.525C442.646 107.551 442.646 107.551 442.592 107.549C443.462 107.469 444.552 107.288 445.861 107.06C451.475 106.16 460.852 104.625 472.899 105.942C478.893 106.597 484.957 106.134 490.782 104.578C492.34 103.382 494.259 99.4327 494.404 99.1392C490.838 93.817 496.086 91.6851 496.086 91.6851C498.446 97.4015 495.335 98.8445 494.568 99.0904L494.591 99.2267C494.505 99.3595 492.815 102.937 491.247 104.457C496.554 103.005 499.812 101.215 499.868 101.162L499.894 101.19C499.811 100.428 499.43 94.6957 506.711 96.697C506.711 96.697 504.092 102.141 499.999 101.302C500.025 101.33 499.997 101.356 499.969 101.382C497.281 102.736 494.467 103.824 491.567 104.631C493.911 104.644 496.213 105.251 498.259 106.396C498.259 106.396 501.24 105.599 505.049 110.116C505.049 110.116 498.617 111.152 498.252 106.612L498.226 106.584C494.741 104.545 490.855 104.824 490.801 104.822C490.794 104.829 490.784 104.833 490.774 104.833C490.764 104.832 490.754 104.828 490.747 104.821C484.922 106.377 478.858 106.839 472.864 106.185C460.843 104.895 451.468 106.377 445.88 107.305C444.245 107.576 442.964 107.778 442.067 107.83C440.91 108.388 439.806 109.003 438.675 109.589C442.588 109.083 446.547 109.022 450.474 109.407C454.912 109.834 459.273 110.852 463.441 112.436C463.469 112.41 463.495 112.438 463.521 112.466C465.021 113.036 466.485 113.7 467.902 114.453C469.106 114 470.365 113.704 471.645 113.573C472.301 112.591 476.532 108.42 482.188 112.835C482.188 112.835 475.35 117.978 471.612 113.762C470.444 113.936 469.292 114.207 468.169 114.57C470.484 115.818 472.678 117.278 474.722 118.933C474.743 118.956 474.754 118.985 474.753 119.016C474.752 119.046 474.739 119.075 474.716 119.096C474.715 119.15 474.632 119.174 474.58 119.118C471.347 116.469 467.723 114.338 463.836 112.801C464.618 113.749 466.697 116.474 467.389 119.343C467.387 119.397 467.385 119.451 467.303 119.476L467.277 119.448C467.883 119.983 472.945 124.324 472.922 129.962C472.922 129.962 465.174 125.668 467.196 119.418L467.17 119.39C466.411 116.112 463.746 113.042 463.408 112.625C455.359 109.616 446.683 108.678 438.177 109.898C429.949 114.483 422.608 120.503 416.501 127.675C417.432 127.38 420.109 126.763 422.336 127.46C422.67 127.2 427.811 123.383 435.158 134.089C435.158 134.089 424.93 136.789 422.383 127.678C419.782 126.807 416.521 127.865 416.247 127.965C413.173 131.578 410.192 134.841 407.276 137.782C408.213 137.522 409.194 137.462 410.155 137.605L410.208 137.661C410.785 137.436 415.173 135.9 420.789 143.187C420.789 143.187 412.297 145.836 410.176 137.796C410.153 137.814 410.124 137.823 410.094 137.82C409.054 137.665 407.991 137.761 406.995 138.098C400.433 144.714 394.252 149.662 388.283 153.098C380.186 157.793 372.506 159.683 364.834 158.834C364.806 158.86 364.78 158.832 364.754 158.804L364.387 158.413C364.105 157.943 363.747 157.28 363.925 156.798C364.104 156.316 364.483 156.329 365.107 156.322C365.869 156.36 366.627 156.457 367.374 156.613C370.608 157.208 375.889 158.194 381.843 156.031C385.958 154.311 389.86 152.119 393.471 149.5C394.661 148.072 395.562 146.426 396.125 144.654C395.576 142.386 393.409 140.688 393.409 140.688L393.356 140.632C392.281 141.166 386.985 143.133 382.651 133.123C382.651 133.123 388.84 132.052 393.549 140.557C393.76 140.726 395.581 142.223 396.218 144.304C396.84 142.224 396.959 140.026 396.564 137.891C396.55 137.876 396.543 137.856 396.543 137.836C396.544 137.816 396.553 137.796 396.568 137.782C395.855 137.19 390.299 132.209 396.263 122.32C396.263 122.32 402.477 129.573 396.704 137.76L396.756 137.816C397.189 140.107 397.036 142.47 396.313 144.687L396.34 144.715C396.347 144.745 396.345 144.776 396.334 144.804C396.324 144.833 396.305 144.858 396.28 144.876C395.753 146.374 395.003 147.784 394.055 149.059C399.202 145.324 404.577 140.449 410.178 134.434C411.714 131.421 414.157 123.938 416.289 116.797C415.979 116.353 413.325 112.958 410.749 111.328L410.671 111.244C409.954 111.6 404.377 113.83 399.463 104.994C399.491 104.967 404.455 102.419 410.782 111.14Z" fill="url(#paint13_radial_269_793)"/>
<path d="M415.569 104.928C415.569 104.928 406.423 99.4767 413.162 90.752C413.162 90.752 418.257 98.2118 415.569 104.928Z" fill="url(#paint14_radial_269_793)"/>
<path d="M113.354 115.519C106.646 118.335 104.838 127.168 104.838 127.168C115.805 125.874 113.354 115.519 113.354 115.519Z" fill="url(#paint15_radial_269_793)"/>
<path d="M87.6869 68.3735L87.6607 68.3455C87.5803 68.3158 87.5262 68.314 87.4964 68.3943C85.9241 70.8639 85.4607 74.2374 85.3114 75.4795C83.7081 71.618 82.6999 67.5356 82.3211 63.3717L82.2164 63.2598C82.1342 63.2842 82.1062 63.3104 82.1306 63.3925C82.3362 66.017 82.814 68.6129 83.5566 71.1385C82.5099 70.6013 81.5143 69.9697 80.5824 69.2516C80.9844 63.626 72.5429 62.2914 72.5429 62.2914C73.3105 69.4465 79.2438 69.56 80.3883 69.3808C80.5473 69.4944 82.2918 70.853 83.656 71.4129C84.1105 72.95 84.6491 74.4609 85.2691 75.939L85.3215 75.9949C87.1139 80.0765 89.4302 83.9072 92.2119 87.3905C94.6899 90.4643 97.4981 93.2566 100.586 95.7171L96.9648 94.5409L96.9386 94.5129C96.2803 93.922 95.2221 93.1282 93.9263 92.1368C89.3736 88.7883 81.7247 83.1421 74.3125 73.6C70.5624 68.8646 65.9938 64.8398 60.8234 61.7166L60.7972 61.6886C58.9341 59.9024 57.5851 57.6485 56.8913 55.1624L56.8389 55.1065C59.8252 51.6804 54.6125 47.7951 54.6125 47.7951C54.0111 53.7123 56.6972 55.2916 56.6972 55.2916C57.3106 57.5465 58.4718 59.6149 60.0776 61.3126C57.4998 59.7685 54.7589 58.5146 51.9051 57.574C51.8789 57.5461 51.8509 57.5723 51.8229 57.5985C49.6081 54.0557 43.8517 55.9811 43.8517 55.9811C47.4832 62.6067 51.3367 58.3687 51.8176 57.7609L51.8438 57.7889C51.8979 57.7907 55.4684 58.8568 60.2294 61.6429C58.0629 61.5717 54.3337 62.8589 54.1414 62.9339C53.9492 63.0089 54.0855 62.9863 54.0837 63.0405C53.3379 62.6364 50.1519 61.4202 47.7144 67.1145C47.7144 67.1145 52.9265 69.3732 54.2164 63.1261C54.545 63.0285 58.6849 61.6193 60.6275 61.9C65.8219 64.9904 70.3961 69.0201 74.1167 73.7834C81.5569 83.2993 89.1778 88.9716 93.7567 92.3481C94.8412 93.1699 95.7423 93.7959 96.3744 94.3588L96.322 94.3029C85.2825 90.3617 75.9564 84.6063 67.7183 79.5644L60.0094 74.9194C57.8766 73.7407 55.6277 72.7856 53.2986 72.0693L53.2724 72.0413C53.2462 72.0133 46.9212 69.7994 44.7724 66.7197C44.7463 66.6917 44.7201 66.6637 44.6921 66.6899C43.8133 61.2662 32.9238 57.7095 32.9238 57.7095C34.0992 66.4775 43.5964 67.0334 44.6064 66.8226L44.6326 66.8506C46.0552 68.9306 49.3073 70.6098 51.3649 71.5178C42.5746 69.25 32.6715 69.494 25.6003 70.1834C25.3664 69.8775 23.6611 67.3274 23.1051 65.2759L23.0003 65.164C22.9182 65.1884 22.9164 65.2426 22.9146 65.2967C23.4463 67.2661 24.9944 69.6484 25.3837 70.1762C25.0028 70.218 24.6481 70.2876 24.2951 70.3032C22.3935 68.7768 20.3881 65.4577 20.3619 65.4298L20.2274 65.3982C20.1715 65.4506 20.1697 65.5048 20.1959 65.5327C20.2221 65.5607 22.1245 68.7137 24.0226 70.3484C19.5058 70.8507 16.4217 71.4813 16.0669 71.551C11.07 63.5793 2.85418 72.6893 2.85418 72.6893C13.5398 80.7937 15.7724 73.0866 16.0598 71.7676C16.1681 71.7712 19.8272 70.9697 25.2123 70.4417C23.1615 72.6245 20.637 77.6652 20.5686 78.0968C12.5593 75.9902 12.8194 87.0323 12.8194 87.0323C20.8846 86.6195 20.7234 79.1591 20.6734 78.2086C20.6842 78.2097 20.6951 78.2084 20.7054 78.2049C20.7157 78.2014 20.7251 78.1957 20.7331 78.1883C20.741 78.1808 20.7473 78.1718 20.7515 78.1618C20.7556 78.1517 20.7576 78.1409 20.7573 78.13C20.8484 77.8348 23.5197 72.4465 25.5652 70.4262C33.0173 69.6951 43.6805 69.4219 52.7814 72.1336C49.014 72.9316 44.7171 76.64 44.654 76.909C43.8731 76.7478 35.9906 75.7298 32.1642 84.0894C32.1642 84.0894 41.7066 84.918 44.6784 76.9911L44.7308 77.0471C44.7412 77.0525 44.7526 77.0555 44.7643 77.0558C44.776 77.056 44.7876 77.0536 44.7983 77.0488C44.8089 77.0439 44.8183 77.0366 44.8256 77.0276C44.833 77.0185 44.8382 77.0079 44.8409 76.9965C45.0141 76.6769 49.4771 72.8655 53.2111 72.2562C55.5355 72.9722 57.776 73.9366 59.8939 75.1325C61.6771 76.1399 63.4847 77.2294 65.3989 78.3767C63.339 78.3632 60.1144 79.9652 59.9484 80.0682C59.7823 80.1712 59.9204 80.0944 59.8924 80.1206C59.0276 80.0379 52.8045 79.6709 49.0446 87.6531C49.0446 87.6531 58.343 87.6604 59.9692 80.2587C59.9972 80.2325 60.0234 80.2604 60.0513 80.2342C60.0793 80.208 63.8823 78.3269 65.797 78.6338L67.6046 79.7233C75.7082 84.7337 84.9034 90.3493 95.6983 94.3095C92.2528 94.3861 88.1111 95.8495 84.4497 97.5456L84.3938 97.5979C82.8803 98.2802 81.4733 99.0201 80.2027 99.7375C77.2762 99.6955 76.1061 99.0065 76.1061 99.0065C76.1061 99.0065 76.0537 98.9505 76.0257 98.9767C75.5909 93.2423 68.2143 93.3253 68.2143 93.3253C69.6133 99.4167 75.5014 99.2577 75.9924 99.1654C76.4834 99.0731 77.1625 99.8545 79.8444 99.9155C76.7788 101.631 74.6428 103.106 74.5886 103.104C74.5723 103.117 74.5587 103.133 74.5488 103.152C74.5388 103.17 74.5328 103.19 74.5309 103.211C73.806 102.997 68.1827 101.701 63.6532 108.357C63.6532 108.357 72.6863 110.66 74.6095 103.295L74.7178 103.298C77.7709 101.263 80.9653 99.4469 84.2765 97.8652C83.6609 99.7809 83.2594 101.759 83.0794 103.763L83.1056 103.791C79.1195 110.41 81.9748 115.086 81.9748 115.086C86.7703 107.761 83.8704 104.439 83.2383 103.877C83.2663 103.85 83.2942 103.824 83.2681 103.796C83.4346 101.75 83.8562 99.7333 84.5229 97.792C88.3783 95.9667 92.7105 94.4824 96.2328 94.5439C106.834 98.3869 118.12 99.9765 129.37 99.2111C132.169 99.0048 134.856 98.9033 137.461 98.8262C133.978 100.04 127.363 103.347 121.185 106.56C120.512 106.526 119.848 106.385 119.22 106.143C117.335 102.448 112.143 102.061 112.143 102.061C114.414 108.018 118.444 106.66 119.185 106.386C119.717 106.563 120.268 106.681 120.827 106.738L114.811 109.956C114.622 109.923 111.759 109.612 109.653 107.699L109.601 107.643C109.43 100.454 98.0628 101.544 98.0628 101.544C101.209 110.567 108.636 108.127 109.515 107.776L109.567 107.832C111.25 109.405 113.591 109.943 114.508 110.082C110.286 112.356 107.138 114.096 106.78 114.274C106.422 114.452 100.011 111.53 94.7129 118.486C94.7129 118.486 104.174 120.966 106.773 114.49L106.881 114.494C106.991 114.443 112.928 111.141 119.743 107.543C116.068 110.458 113.464 115.469 113.436 115.496C113.408 115.522 113.432 115.604 113.485 115.66C113.537 115.716 113.593 115.663 113.623 115.583C113.652 115.503 116.833 109.48 121.094 106.855C120.953 107.827 120.472 111.742 121.057 114.553L121.136 114.637C119.268 125.257 124.577 127.058 124.577 127.058C127.499 117.34 121.967 114.908 121.244 114.641L121.192 114.585C120.558 111.609 121.16 107.318 121.232 106.778C127.851 103.363 134.906 99.8538 138.137 98.8755C146.358 98.6847 153.582 99.1118 159.862 100.213C158.275 100.402 156.729 100.855 155.291 101.554C155.265 101.526 155.211 101.524 155.181 101.604C153.1 102.639 151.308 104.172 149.964 106.069C149.963 106.123 149.935 106.149 149.961 106.177C140.041 107.749 139.186 117.263 139.186 117.263C150.441 114.651 150.144 107.213 150.067 106.235C150.094 106.263 150.122 106.236 150.15 106.21C151.398 104.426 153.054 102.966 154.98 101.95C153.941 103.868 154.135 106.206 154.152 106.504C151.352 115.792 156.436 119.484 156.436 119.484C160.59 109.4 155.466 106.954 154.367 106.566L154.341 106.538C154.369 106.512 154.025 103.789 155.31 101.798C156.971 100.983 158.772 100.49 160.617 100.346C165.019 101.091 169.318 102.352 173.425 104.101C179.108 106.863 182.107 111.299 183.942 114.044C184.343 114.705 184.803 115.328 185.317 115.905C185.736 116.353 186.138 116.501 186.44 116.376C186.743 116.25 187.175 115.478 187.301 114.94C187.309 114.758 187.333 114.578 187.373 114.4L187.32 114.344C182.56 108.251 175.866 104.073 166.84 101.553C160.205 99.6818 152.375 98.7198 143.052 98.6304C142.122 98.1354 141.312 97.4425 140.679 96.6005L140.627 96.5446C144.902 89.3925 137.07 85.1772 137.07 85.1772C135.768 94.2704 139.954 96.3869 140.517 96.5952C140.509 96.6021 140.503 96.6103 140.499 96.6195C140.495 96.6287 140.493 96.6386 140.492 96.6486C140.492 96.6587 140.494 96.6687 140.497 96.6781C140.501 96.6875 140.506 96.6961 140.513 96.7035C141.076 97.479 141.793 98.1301 142.619 98.6161C138.499 98.5892 134.075 98.7421 129.321 99.0468C129.054 98.9296 126.043 97.3396 124.851 94.8335C129.593 86.6666 120.501 81.2171 120.501 81.2171C117.966 93.9838 124.278 94.9502 124.709 95.0186C125.751 97.1403 128.062 98.5988 128.94 99.0885C119.536 99.6894 110.101 98.6269 101.066 95.9498C97.804 93.436 94.859 90.5355 92.2958 87.3119C89.4918 83.8593 87.1817 80.0334 85.4316 75.9443C85.4757 75.4307 85.826 71.3757 87.6274 68.5342L87.6012 68.5062C93.498 65.6094 91.1763 57.075 91.1763 57.075C87.227 60.9303 87.6315 67.5855 87.6869 68.3735Z" fill="url(#paint16_radial_269_793)"/>
<path d="M206.527 151.845C206.527 151.845 213.26 153.204 215.116 143.75C215.116 143.75 206.745 145.237 206.527 151.845Z" fill="url(#paint17_radial_269_793)"/>
<path d="M254.588 186.578C254.53 186.684 255.824 186.889 257.74 186.356C257.373 186.929 257.062 187.536 256.813 188.169C256.695 188.436 263.942 192.307 272.715 186.034C272.715 186.034 268.015 183.034 263.509 183.211C265.505 181.43 267.156 179.297 268.379 176.919C268.379 176.919 256.686 177.999 254.588 186.578Z" fill="url(#paint18_radial_269_793)"/>
<path d="M264.546 165.705C263.722 166.057 257.528 168.917 261.588 177.346C261.588 177.346 267.996 172.081 264.707 165.765C265.433 164.356 265.845 162.806 265.914 161.223L267.766 163.425L267.792 163.453C270.214 166.116 272.96 168.465 275.966 170.445C278.401 172.081 281.012 173.44 283.749 174.496C283.662 175.54 283.292 176.54 282.678 177.389C281.981 177.149 277.336 175.776 274.534 183.492C274.534 183.492 281.003 184.626 282.755 177.527C282.781 177.555 282.809 177.528 282.837 177.502C283.452 176.662 283.831 175.673 283.934 174.638C285.726 176.215 287.954 180.164 287.953 180.219L288.005 180.275C287.566 181.263 284.659 188.026 288.8 190.711C288.8 190.711 292.884 184.42 288.115 180.224L288.171 180.172C288.068 180.005 286.098 176.444 284.336 174.786C289.424 176.688 294.683 177.539 299.44 177.126C302.953 178.862 305.829 181.66 307.663 185.122C307.821 188.543 305.821 189.996 305.821 189.996C305.821 189.996 305.765 190.048 305.764 190.102C304.976 190.158 299.746 190.908 300.375 198.98C300.375 198.98 308.298 196.285 305.896 190.188C305.924 190.162 307.84 188.788 307.837 185.589C308.746 187.307 309.407 189.145 309.799 191.048L309.851 191.104C306.548 195.93 311.089 200.443 311.089 200.443C315.365 194.078 310.709 191.403 310.016 191.055L309.989 191.027C309.597 188.951 308.876 186.95 307.853 185.101L307.774 185.018L307.082 183.829C308.418 184.307 309.705 184.912 310.926 185.636L311.034 185.64C311.396 186.194 313.578 189.085 317.844 187.138C320.523 189.312 323.089 191.622 325.532 194.059C326.767 196.892 326.546 201.141 326.518 201.167L326.597 201.251C325.979 201.881 321.64 206.89 327.776 211.537C327.776 211.537 331.269 205.064 326.733 201.228L326.789 201.176C326.791 201.122 326.999 197.252 325.953 194.452C328.13 196.666 330.065 198.844 331.733 200.851C334.741 204.52 337.512 208.378 340.028 212.401C339.459 215.716 338.318 217.414 338.318 217.414C338.303 217.428 338.295 217.447 338.294 217.467C338.293 217.488 338.301 217.507 338.315 217.522C337.628 217.798 333.281 219.715 334.886 226.139C334.886 226.139 340.361 222.903 338.421 217.58C338.449 217.554 338.475 217.582 338.503 217.556C339.333 216.035 339.9 214.386 340.182 212.677C341.178 214.208 342.085 215.794 342.899 217.429L342.978 217.513C340.479 225.889 350.319 229.221 350.319 229.221C351.128 218.648 344.007 217.547 343.09 217.408L343.064 217.38L342.041 215.503L345.652 216.164C345.68 216.138 345.706 216.166 345.734 216.139C346.174 216.777 349.423 221.032 355.611 218.334C355.611 218.334 350.818 211.589 345.739 215.977L345.687 215.921C345.659 215.947 343.799 215.642 341.914 215.255L340.191 212.406L340.165 212.378C337.655 208.336 334.875 204.467 331.844 200.8C329.904 198.423 327.844 196.147 325.67 193.982C325.672 193.928 325.672 193.928 325.618 193.926L325.094 193.367C326.379 193.665 327.689 193.844 329.007 193.902C330.652 194.021 332.305 193.92 333.924 193.603C334.364 194.241 337.658 198.768 345.077 192.451C345.077 192.451 339.084 187.564 333.957 193.414C333.943 193.399 333.924 193.391 333.904 193.39C333.883 193.389 333.864 193.397 333.849 193.411C332.354 193.694 330.831 193.799 329.311 193.722C330.234 192.832 331.041 191.83 331.714 190.738C331.742 190.712 331.742 190.712 331.716 190.684C332.614 190.578 338.824 189.697 338.946 184.334C338.946 184.334 333.644 183.997 331.665 190.574C331.611 190.572 331.557 190.57 331.555 190.624C330.846 191.767 329.981 192.807 328.986 193.712C327.57 193.631 326.162 193.44 324.776 193.14C322.711 191.084 320.446 189.057 317.982 187.061C318.945 186.575 319.847 185.977 320.67 185.279C320.67 185.279 317.644 182.495 313.749 183.885C309.965 181.214 305.938 178.903 301.722 176.984C308.93 176.272 316.916 175.775 322.673 175.476C323.444 175.963 324.877 177.718 324.877 177.718C324.884 177.725 324.893 177.729 324.904 177.73C324.914 177.73 324.924 177.726 324.931 177.719C322.426 183.005 329.115 186.505 329.145 186.424C331.857 179.79 325.901 177.914 325.067 177.697L325.071 177.588C324.445 176.827 323.751 176.124 322.998 175.487C327.588 175.231 330.683 175.116 330.737 175.118C330.791 175.12 330.791 175.12 330.819 175.093C331.42 175.791 335.999 180.794 342.557 177.594C342.557 177.594 335.61 171.184 330.716 174.927L325.504 175.136C326.549 174.682 328.863 173.565 330.461 171.964C331.216 172.097 336.558 172.869 338.064 165.003C338.064 165.003 331.372 165.705 330.384 171.826C330.363 171.826 330.343 171.831 330.324 171.84C330.305 171.849 330.288 171.861 330.274 171.877C328.229 173.897 324.989 175.146 324.852 175.168C318.959 175.49 309.617 175.996 301.293 176.861C300.384 176.452 299.502 176.071 298.564 175.742C296.718 175.003 294.954 174.24 293.218 173.451C295.624 172.826 298.039 171.929 299.951 170.664C301.308 169.813 302.834 168.752 304.442 167.666C306.05 166.581 308.324 165.029 310.264 163.737C312.053 163.741 314.259 165.088 314.259 165.088L314.311 165.144C314.845 171.993 324.44 170.411 324.44 170.411C322.134 164.696 315.293 164.959 314.397 165.011L314.345 164.955C314.238 164.898 312.298 163.722 310.54 163.583C313.975 161.365 317.182 159.464 319.319 158.775C319.976 159.42 326.697 162.786 334.446 153.01C334.446 153.01 324.079 149.226 319.325 158.613L319.216 158.609C317.325 159.225 314.592 160.734 311.629 162.616C312.367 161.61 313.994 159.142 314.307 156.225L314.254 156.169C315.004 155.624 320.021 151.451 316.276 144.144C316.276 144.144 310.263 151.402 314.12 156.137L314.146 156.165C313.701 159.783 311.301 162.714 311.103 162.951C308.887 164.397 306.531 165.973 304.285 167.498C302.703 168.612 301.15 169.646 299.82 170.524C297.679 171.828 295.341 172.776 292.896 173.332C289.652 171.814 286.504 170.099 283.468 168.197C285.025 168.682 287.986 169.322 290.46 168.264C290.488 168.238 290.49 168.184 290.518 168.158C291.357 168.212 297.619 168.228 298.532 160.234C298.532 160.234 290.67 162.714 290.413 168.046L290.387 168.018C287.334 169.354 283.449 167.953 282.726 167.685L279.438 165.462C280.99 164.947 282.383 164.041 283.482 162.83C283.502 162.808 283.513 162.779 283.512 162.75C284.281 162.45 289.636 160.375 287.831 154.244C287.831 154.244 281.812 157.57 283.379 162.664C282.254 163.876 280.832 164.773 279.254 165.267L276.899 163.535C277.398 161.546 277.55 158.569 275.224 155.917C275.224 155.917 273.472 158.082 273.439 160.738C264.366 153.066 258.424 144.982 254.454 139.565C253.131 137.76 251.99 136.204 251 134.979C250.609 134.505 250.057 133.972 249.453 133.382C254.533 136.342 260.324 138.321 265 139.559C267.255 141.07 268.275 143.842 268.273 143.896L268.326 143.952C266.2 148.409 274.195 151.789 274.195 151.789C274.648 145.434 269.245 144.036 268.492 143.849L268.466 143.821C268.439 143.793 267.545 141.324 265.537 139.739L266.908 140.083C266.911 140.086 266.915 140.089 266.92 140.091C266.925 140.093 266.929 140.095 266.935 140.095C266.94 140.095 266.945 140.094 266.949 140.092C266.954 140.091 266.958 140.088 266.962 140.084C269.251 140.667 271.571 141.124 273.911 141.451C273.937 141.479 273.965 141.453 273.993 141.427C274.598 142.016 279.132 145.906 286.995 140.119C286.995 140.119 280.526 134.051 273.971 141.291L273.945 141.263C273.89 141.261 271.273 140.877 267.507 139.994C268 139.847 268.963 139.418 270.409 138.327C270.425 138.314 270.438 138.298 270.448 138.28C270.458 138.261 270.464 138.241 270.466 138.221C271.2 138.163 276.098 137.619 277.764 130.653C277.764 130.653 270.008 131.564 270.333 138.135L270.307 138.107C268.194 139.718 267.214 139.849 267.023 139.87C261.859 138.616 254.722 136.375 248.77 132.709C247.488 131.565 245.905 130.266 244.019 128.812L243.966 128.756C232.278 119.806 210.638 106.841 197.188 103.634C197.162 103.606 197.106 103.658 197.078 103.685L197.183 103.797C210.604 107.03 232.245 119.994 243.88 128.889C243.978 129.217 244.534 131.269 242.258 133.715C241.699 133.098 240.94 132.698 240.115 132.587C239.291 132.475 238.453 132.659 237.75 133.106C234.987 134.696 233.327 138.193 232.065 139.48C232.065 139.48 238.506 139.8 242.279 133.906C242.305 133.934 242.359 133.936 242.415 133.883C244.242 131.91 244.325 130.205 244.217 129.361C245.633 131.657 245.697 135.482 245.723 135.51C245.749 135.538 245.721 135.564 245.747 135.592C240.771 141.827 247.415 148.361 247.415 148.361C252.533 139.475 246.684 135.975 245.912 135.543L245.885 135.515C245.891 135.353 245.794 131.717 244.408 129.34C247.342 131.632 249.606 133.659 250.832 135.136C252.057 136.613 252.965 137.862 254.315 139.696L256.779 143.057C258.833 150.688 262.082 156.569 265.594 161.049C264.954 162.124 264.023 162.996 262.909 163.564L262.853 163.616C262.086 163.022 255.799 158.83 251.564 167.258C251.564 167.258 256.673 170.191 262.876 163.752C262.89 163.767 262.909 163.776 262.929 163.777C262.949 163.777 262.969 163.77 262.984 163.756C264.033 163.215 264.934 162.425 265.608 161.457C265.536 162.958 265.136 164.425 264.436 165.756L264.546 165.705ZM313.616 183.8C312.702 184.191 311.86 184.731 311.124 185.399L311.097 185.371C309.794 184.57 308.406 183.915 306.96 183.418C305.196 180.709 302.754 178.507 299.877 177.032L300.04 177.037L301.401 176.865C305.675 178.8 309.764 181.121 313.616 183.8ZM298.618 175.743L300.999 176.716L300.021 176.793C295.259 177.314 289.945 176.516 284.775 174.638C287.567 174.437 290.339 174.002 293.059 173.338C294.847 174.183 296.692 174.975 298.618 175.743ZM282.621 167.573C282.593 167.599 282.62 167.627 282.674 167.629L282.752 167.713C285.952 169.764 289.278 171.611 292.709 173.245C289.943 173.889 287.128 174.295 284.292 174.46C281.409 173.376 278.655 171.976 276.08 170.286C273.261 168.42 270.676 166.224 268.379 163.744C269.979 164.555 274.816 166.693 279.305 165.377C280.393 166.09 281.479 166.858 282.621 167.573ZM279.094 165.207C278.166 165.427 277.216 165.541 276.263 165.548C276.544 164.922 276.782 164.277 276.977 163.619L279.094 165.207ZM273.544 160.85C273.602 162.37 274.225 164.044 276.046 165.541C271.928 165.46 268.308 163.443 267.962 163.242C263.723 158.602 259.705 152.181 257.258 143.344C262 149.782 267.464 155.656 273.544 160.85Z" fill="url(#paint19_radial_269_793)"/>
<path d="M239.844 123.85C241.977 124.376 244.189 124.494 246.366 124.2L246.45 124.122C247.25 124.527 253.402 127.061 258.709 117.367C257.574 116.701 256.262 116.399 254.95 116.501C253.638 116.603 252.388 117.105 251.37 117.94C247.783 120.668 247.447 122.663 246.399 124.011L246.347 123.956C244.299 124.256 242.213 124.16 240.202 123.672C240.977 123.21 243.28 121.578 243.672 118.744C243.671 118.716 243.66 118.689 243.641 118.668C243.622 118.647 243.595 118.635 243.567 118.632C243.513 118.63 243.431 118.655 243.429 118.709C243.029 121.813 240.265 123.403 239.879 123.608C238.263 123.24 236.698 122.679 235.217 121.936C235.165 121.88 235.109 121.933 235.081 121.959C235.025 122.011 235.049 122.093 235.103 122.095C236.617 122.862 238.218 123.443 239.872 123.824L239.844 123.85Z" fill="url(#paint20_radial_269_793)"/>
<path d="M245.97 110.713C245.97 110.713 240.586 114.494 243.594 118.66C243.594 118.66 248.025 115.823 245.97 110.713Z" fill="url(#paint21_radial_269_793)"/>
<path d="M116.665 62.6561C116.665 62.6561 107.47 67.7489 111.522 75.6082C111.522 75.6082 119.531 73.6212 116.665 62.6561Z" fill="url(#paint22_radial_269_793)"/>
<path d="M114.448 76.4917C114.448 76.4917 116.697 70.7641 123.852 72.4631C123.852 72.4631 120.241 80.0436 114.448 76.4917Z" fill="url(#paint23_radial_269_793)"/>
<path d="M222.897 131.373C222.897 131.373 213.702 136.466 217.781 144.299C217.781 144.299 225.762 142.338 222.897 131.373Z" fill="url(#paint24_radial_269_793)"/>
<path d="M220.68 145.208C220.68 145.208 222.929 139.481 230.084 141.18C230.084 141.18 226.527 148.762 220.68 145.208Z" fill="url(#paint25_radial_269_793)"/>
<path d="M359.934 105.106C359.934 105.106 362.181 99.4328 369.31 101.104C369.31 101.104 365.753 108.686 359.934 105.106Z" fill="url(#paint26_radial_269_793)"/>
<path d="M352.298 141.859C352.298 141.859 342.765 137.452 338.871 145.403C338.871 145.403 345.176 150.679 352.298 141.859Z" fill="url(#paint27_radial_269_793)"/>
<path d="M346.049 181.83C346.049 181.83 343.549 176.244 349.724 172.3C349.724 172.3 352.665 180.15 346.049 181.83Z" fill="url(#paint28_radial_269_793)"/>
<defs>
<radialGradient id="paint0_radial_269_793" cx="0" cy="0" r="1" gradientUnits="userSpaceOnUse" gradientTransform="translate(310.852 138.521) rotate(179.036) scale(10.5034 10.0744)">
<stop stop-color="#FFD4A5"/>
<stop offset="0.460516" stop-color="#D6A674"/>
<stop offset="0.734264" stop-color="#FFF3E7"/>
<stop offset="1" stop-color="#A66F3B"/>
</radialGradient>
<radialGradient id="paint1_radial_269_793" cx="0" cy="0" r="1" gradientUnits="userSpaceOnUse" gradientTransform="translate(373.776 103.246) rotate(159.519) scale(151.026 103.426)">
<stop stop-color="#FFD4A5"/>
<stop offset="0.460516" stop-color="#D6A674"/>
<stop offset="0.734264" stop-color="#FFF3E7"/>
<stop offset="1" stop-color="#A66F3B"/>
</radialGradient>
<radialGradient id="paint2_radial_269_793" cx="0" cy="0" r="1" gradientUnits="userSpaceOnUse" gradientTransform="translate(357.465 128.609) rotate(169.145) scale(20.0427 17.441)">
<stop stop-color="#FFD4A5"/>
<stop offset="0.460516" stop-color="#D6A674"/>
<stop offset="0.734264" stop-color="#FFF3E7"/>
<stop offset="1" stop-color="#A66F3B"/>
</radialGradient>
<radialGradient id="paint3_radial_269_793" cx="0" cy="0" r="1" gradientUnits="userSpaceOnUse" gradientTransform="translate(497.813 33.6727) rotate(150.622) scale(188.081 83.6472)">
<stop stop-color="#FFD4A5"/>
<stop offset="0.460516" stop-color="#D6A674"/>
<stop offset="0.734264" stop-color="#FFF3E7"/>
<stop offset="1" stop-color="#A66F3B"/>
</radialGradient>
<radialGradient id="paint4_radial_269_793" cx="0" cy="0" r="1" gradientUnits="userSpaceOnUse" gradientTransform="translate(400.073 70.2916) rotate(163.15) scale(23.5481 18.0158)">
<stop stop-color="#FFD4A5"/>
<stop offset="0.460516" stop-color="#D6A674"/>
<stop offset="0.734264" stop-color="#FFF3E7"/>
<stop offset="1" stop-color="#A66F3B"/>
</radialGradient>
<radialGradient id="paint5_radial_269_793" cx="0" cy="0" r="1" gradientUnits="userSpaceOnUse" gradientTransform="translate(294.777 80.0536) rotate(154.123) scale(119.398 65.1543)">
<stop stop-color="#FFD4A5"/>
<stop offset="0.460516" stop-color="#D6A674"/>
<stop offset="0.734264" stop-color="#FFF3E7"/>
<stop offset="1" stop-color="#A66F3B"/>
</radialGradient>
<radialGradient id="paint6_radial_269_793" cx="0" cy="0" r="1" gradientUnits="userSpaceOnUse" gradientTransform="translate(283.598 102.604) rotate(167.013) scale(21.2519 17.7868)">
<stop stop-color="#FFD4A5"/>
<stop offset="0.460516" stop-color="#D6A674"/>
<stop offset="0.734264" stop-color="#FFF3E7"/>
<stop offset="1" stop-color="#A66F3B"/>
</radialGradient>
<radialGradient id="paint7_radial_269_793" cx="0" cy="0" r="1" gradientUnits="userSpaceOnUse" gradientTransform="translate(433.569 141.506) rotate(146.398) scale(136.495 42.9008)">
<stop stop-color="#FFD4A5"/>
<stop offset="0.460516" stop-color="#D6A674"/>
<stop offset="0.734264" stop-color="#FFF3E7"/>
<stop offset="1" stop-color="#A66F3B"/>
</radialGradient>
<radialGradient id="paint8_radial_269_793" cx="0" cy="0" r="1" gradientUnits="userSpaceOnUse" gradientTransform="translate(371.584 173.063) rotate(160.643) scale(24.8827 17.6892)">
<stop stop-color="#FFD4A5"/>
<stop offset="0.460516" stop-color="#D6A674"/>
<stop offset="0.734264" stop-color="#FFF3E7"/>
<stop offset="1" stop-color="#A66F3B"/>
</radialGradient>
<radialGradient id="paint9_radial_269_793" cx="0" cy="0" r="1" gradientUnits="userSpaceOnUse" gradientTransform="translate(408.469 108.973) rotate(147.178) scale(132.803 45.0162)">
<stop stop-color="#FFD4A5"/>
<stop offset="0.460516" stop-color="#D6A674"/>
<stop offset="0.734264" stop-color="#FFF3E7"/>
<stop offset="1" stop-color="#A66F3B"/>
</radialGradient>
<radialGradient id="paint10_radial_269_793" cx="0" cy="0" r="1" gradientUnits="userSpaceOnUse" gradientTransform="translate(396.753 116.329) rotate(153.872) scale(27.9796 15.0724)">
<stop stop-color="#FFD4A5"/>
<stop offset="0.460516" stop-color="#D6A674"/>
<stop offset="0.734264" stop-color="#FFF3E7"/>
<stop offset="1" stop-color="#A66F3B"/>
</radialGradient>
<radialGradient id="paint11_radial_269_793" cx="0" cy="0" r="1" gradientUnits="userSpaceOnUse" gradientTransform="translate(241.964 111.417) rotate(151.428) scale(126.656 59.3569)">
<stop stop-color="#FFD4A5"/>
<stop offset="0.460516" stop-color="#D6A674"/>
<stop offset="0.734264" stop-color="#FFF3E7"/>
<stop offset="1" stop-color="#A66F3B"/>
</radialGradient>
<radialGradient id="paint12_radial_269_793" cx="0" cy="0" r="1" gradientUnits="userSpaceOnUse" gradientTransform="translate(178.173 128.046) rotate(165.013) scale(22.4776 18.0169)">
<stop stop-color="#FFD4A5"/>
<stop offset="0.460516" stop-color="#D6A674"/>
<stop offset="0.734264" stop-color="#FFF3E7"/>
<stop offset="1" stop-color="#A66F3B"/>
</radialGradient>
<radialGradient id="paint13_radial_269_793" cx="0" cy="0" r="1" gradientUnits="userSpaceOnUse" gradientTransform="translate(590.59 31.6391) rotate(146.826) scale(406.414 133.246)">
<stop stop-color="#FFD4A5"/>
<stop offset="0.460516" stop-color="#D6A674"/>
<stop offset="0.734264" stop-color="#FFF3E7"/>
<stop offset="1" stop-color="#A66F3B"/>
</radialGradient>
<radialGradient id="paint14_radial_269_793" cx="0" cy="0" r="1" gradientUnits="userSpaceOnUse" gradientTransform="translate(423.614 97.6503) rotate(168.762) scale(20.9934 18.1502)">
<stop stop-color="#FFD4A5"/>
<stop offset="0.460516" stop-color="#D6A674"/>
<stop offset="0.734264" stop-color="#FFF3E7"/>
<stop offset="1" stop-color="#A66F3B"/>
</radialGradient>
<radialGradient id="paint15_radial_269_793" cx="0" cy="0" r="1" gradientUnits="userSpaceOnUse" gradientTransform="translate(120.49 115.852) rotate(146.737) scale(30.9199 10.0503)">
<stop stop-color="#FFD4A5"/>
<stop offset="0.460516" stop-color="#D6A674"/>
<stop offset="0.734264" stop-color="#FFF3E7"/>
<stop offset="1" stop-color="#A66F3B"/>
</radialGradient>
<radialGradient id="paint16_radial_269_793" cx="0" cy="0" r="1" gradientUnits="userSpaceOnUse" gradientTransform="translate(217.626 90.5677) rotate(168.777) scale(275.451 238.209)">
<stop stop-color="#FFD4A5"/>
<stop offset="0.460516" stop-color="#D6A674"/>
<stop offset="0.734264" stop-color="#FFF3E7"/>
<stop offset="1" stop-color="#A66F3B"/>
</radialGradient>
<radialGradient id="paint17_radial_269_793" cx="0" cy="0" r="1" gradientUnits="userSpaceOnUse" gradientTransform="translate(219.91 142.802) rotate(146.327) scale(25.7075 8.02123)">
<stop stop-color="#FFD4A5"/>
<stop offset="0.460516" stop-color="#D6A674"/>
<stop offset="0.734264" stop-color="#FFF3E7"/>
<stop offset="1" stop-color="#A66F3B"/>
</radialGradient>
<radialGradient id="paint18_radial_269_793" cx="0" cy="0" r="1" gradientUnits="userSpaceOnUse" gradientTransform="translate(279.376 180.089) rotate(156.292) scale(37.998 22.9592)">
<stop stop-color="#FFD4A5"/>
<stop offset="0.460516" stop-color="#D6A674"/>
<stop offset="0.734264" stop-color="#FFF3E7"/>
<stop offset="1" stop-color="#A66F3B"/>
</radialGradient>
<radialGradient id="paint19_radial_269_793" cx="0" cy="0" r="1" gradientUnits="userSpaceOnUse" gradientTransform="translate(399.987 186.9) rotate(-172.855) scale(236.078 223.731)">
<stop stop-color="#FFD4A5"/>
<stop offset="0.460516" stop-color="#D6A674"/>
<stop offset="0.734264" stop-color="#FFF3E7"/>
<stop offset="1" stop-color="#A66F3B"/>
</radialGradient>
<radialGradient id="paint20_radial_269_793" cx="0" cy="0" r="1" gradientUnits="userSpaceOnUse" gradientTransform="translate(264.828 113.376) rotate(153.109) scale(45.8242 23.7014)">
<stop stop-color="#FFD4A5"/>
<stop offset="0.460516" stop-color="#D6A674"/>
<stop offset="0.734264" stop-color="#FFF3E7"/>
<stop offset="1" stop-color="#A66F3B"/>
</radialGradient>
<radialGradient id="paint21_radial_269_793" cx="0" cy="0" r="1" gradientUnits="userSpaceOnUse" gradientTransform="translate(250.756 112.142) rotate(151.398) scale(15.9042 7.43938)">
<stop stop-color="#FFD4A5"/>
<stop offset="0.460516" stop-color="#D6A674"/>
<stop offset="0.734264" stop-color="#FFF3E7"/>
<stop offset="1" stop-color="#A66F3B"/>
</radialGradient>
<radialGradient id="paint22_radial_269_793" cx="0" cy="0" r="1" gradientUnits="userSpaceOnUse" gradientTransform="translate(124.583 64.631) rotate(150.515) scale(27.8733 12.3075)">
<stop stop-color="#FFD4A5"/>
<stop offset="0.460516" stop-color="#D6A674"/>
<stop offset="0.734264" stop-color="#FFF3E7"/>
<stop offset="1" stop-color="#A66F3B"/>
</radialGradient>
<radialGradient id="paint23_radial_269_793" cx="0" cy="0" r="1" gradientUnits="userSpaceOnUse" gradientTransform="translate(126.86 70.7303) rotate(148.928) scale(21.1313 8.31396)">
<stop stop-color="#FFD4A5"/>
<stop offset="0.460516" stop-color="#D6A674"/>
<stop offset="0.734264" stop-color="#FFF3E7"/>
<stop offset="1" stop-color="#A66F3B"/>
</radialGradient>
<radialGradient id="paint24_radial_269_793" cx="0" cy="0" r="1" gradientUnits="userSpaceOnUse" gradientTransform="translate(230.804 133.357) rotate(150.555) scale(27.7933 12.3054)">
<stop stop-color="#FFD4A5"/>
<stop offset="0.460516" stop-color="#D6A674"/>
<stop offset="0.734264" stop-color="#FFF3E7"/>
<stop offset="1" stop-color="#A66F3B"/>
</radialGradient>
<radialGradient id="paint25_radial_269_793" cx="0" cy="0" r="1" gradientUnits="userSpaceOnUse" gradientTransform="translate(233.101 139.457) rotate(148.962) scale(21.1339 8.33713)">
<stop stop-color="#FFD4A5"/>
<stop offset="0.460516" stop-color="#D6A674"/>
<stop offset="0.734264" stop-color="#FFF3E7"/>
<stop offset="1" stop-color="#A66F3B"/>
</radialGradient>
<radialGradient id="paint26_radial_269_793" cx="0" cy="0" r="1" gradientUnits="userSpaceOnUse" gradientTransform="translate(372.317 99.3904) rotate(148.977) scale(21.0508 8.31367)">
<stop stop-color="#FFD4A5"/>
<stop offset="0.460516" stop-color="#D6A674"/>
<stop offset="0.734264" stop-color="#FFF3E7"/>
<stop offset="1" stop-color="#A66F3B"/>
</radialGradient>
<radialGradient id="paint27_radial_269_793" cx="0" cy="0" r="1" gradientUnits="userSpaceOnUse" gradientTransform="translate(355.65 139.154) rotate(151.512) scale(27.1447 12.7882)">
<stop stop-color="#FFD4A5"/>
<stop offset="0.460516" stop-color="#D6A674"/>
<stop offset="0.734264" stop-color="#FFF3E7"/>
<stop offset="1" stop-color="#A66F3B"/>
</radialGradient>
<radialGradient id="paint28_radial_269_793" cx="0" cy="0" r="1" gradientUnits="userSpaceOnUse" gradientTransform="translate(355.737 173.994) rotate(151.22) scale(20.3955 9.43324)">
<stop stop-color="#FFD4A5"/>
<stop offset="0.460516" stop-color="#D6A674"/>
<stop offset="0.734264" stop-color="#FFF3E7"/>
<stop offset="1" stop-color="#A66F3B"/>
</radialGradient>
</defs>
</svg>
