<svg width="51" height="14" viewBox="0 0 51 14" fill="none" xmlns="http://www.w3.org/2000/svg">
<g id="payme_01" clip-path="url(#clip0_2266_21310)">
<g id="Canvas">
<g id="logo_01">
<g id="Shape 1 copy 4">
<path id="Vector" fill-rule="evenodd" clip-rule="evenodd" d="M50.7129 5.79933C51.0741 6.28586 51.1105 7.05266 50.727 7.64693C50.3847 8.17769 48.3357 10.2144 47.6689 10.8689C47.0909 11.4374 46.3108 12.0067 45.543 12.0067H29.466C27.2932 12.0067 27.1621 11.3133 27.1621 9.74578V3.38698C27.1621 1.786 27.6641 1.32324 29.1479 1.32324H45.543C46.3108 1.32324 46.9941 1.69213 47.779 2.44324C48.4453 3.08062 50.4357 5.42502 50.7129 5.79933Z" fill="#33CCCC"/>
<path id="Vector_2" fill-rule="evenodd" clip-rule="evenodd" d="M50.7129 5.79933C51.0741 6.28586 51.1105 7.05266 50.727 7.64693C50.3847 8.17769 48.3357 10.2144 47.6689 10.8689C47.0909 11.4374 46.3108 12.0067 45.543 12.0067H29.466C27.2932 12.0067 27.1621 11.3133 27.1621 9.74578V3.38698C27.1621 1.786 27.6641 1.32324 29.1479 1.32324H45.543C46.3108 1.32324 46.9941 1.69213 47.779 2.44324C48.4453 3.08062 50.4357 5.42502 50.7129 5.79933Z" fill="url(#paint0_linear_2266_21310)"/>
</g>
<g id="Shape 1 copy 4_2">
<path id="Vector_3" fill-rule="evenodd" clip-rule="evenodd" d="M30.8073 3.78201V3.74015C30.8073 3.5357 30.7891 3.33361 30.4332 3.33361H29.0896C28.7773 3.33361 28.7576 3.49615 28.7576 3.74868V5.42917C29.4116 4.54895 30.1368 4.13997 30.8073 3.78201ZM39.8207 9.85427V9.76405H39.8217V5.71939C39.8217 4.02321 39.0294 3.17521 37.445 3.17539C37.0059 3.17151 36.5743 3.28256 36.1983 3.49615C35.8212 3.7101 35.4588 4.00896 35.1112 4.39272C34.9403 3.97569 34.6827 3.66855 34.3382 3.4713C33.9937 3.27406 33.5474 3.17542 32.9992 3.17539C32.3648 3.17539 31.6271 3.38459 31.1042 3.78939C30.9873 3.89966 28.7573 5.55161 28.7573 7.24824V9.83769C28.7573 9.92005 28.7151 10.2325 29.0871 10.2325H30.4858C30.9206 10.2325 30.8782 9.96449 30.8782 9.85427V5.66619C31.1143 5.37144 31.5967 4.64348 32.3803 4.64348C32.681 4.64348 32.8976 4.73927 33.03 4.93086C33.1624 5.12244 33.2289 5.44368 33.2295 5.89455V9.16565H33.2278V9.83778C33.2278 9.92014 33.1856 10.2326 33.5575 10.2326H34.9384C35.3735 10.2326 35.331 9.96458 35.331 9.85436V9.76414H35.3326V5.66637C35.5856 5.37161 36.0897 4.64366 36.8343 4.64366C37.1407 4.64366 37.3616 4.73945 37.4972 4.93104C37.6327 5.12262 37.7005 5.44385 37.7003 5.89472V9.16583H37.6989V9.83796C37.6989 9.92032 37.6568 10.2328 38.0289 10.2328H39.4281C39.8632 10.2326 39.8207 9.96449 39.8207 9.85427ZM47.5241 8.20983C47.0268 9.46916 45.8354 10.1729 44.3593 10.1729C42.221 10.1729 40.8086 8.8016 40.8086 6.74486C40.8086 4.7129 42.2749 3.24006 44.2927 3.24006C46.2888 3.24006 47.6275 4.54841 47.7125 6.65597C47.7234 6.92526 47.6398 7.16317 47.2823 7.16317H42.7452C42.7721 8.29329 43.3511 8.90289 44.373 8.90289C44.9963 8.90289 45.3656 8.64996 45.6872 8.15427C45.8269 7.93858 46.1136 7.95058 46.1136 7.95058H47.2823C47.4731 7.95045 47.5576 8.12592 47.5241 8.20969V8.20983ZM44.2927 4.54761C43.4446 4.54761 42.8529 5.10624 42.7452 6.02095H45.7854C45.7046 5.22086 45.247 4.54761 44.2927 4.54761Z" fill="white"/>
</g>
<g id="Shape 1 copy 4_3">
<path id="Vector_4" fill-rule="evenodd" clip-rule="evenodd" d="M8.35087 1.3814C8.17114 1.11185 7.93801 0.877369 7.66417 0.690738C7.39033 0.509658 7.08961 0.367678 6.77167 0.269405C6.41854 0.161148 6.05379 0.0898287 5.68409 0.0567381C5.26112 0.017591 4.83636 -0.00132196 4.41139 7.17434e-05H0.686975C0.352073 7.17434e-05 0.00102336 0.207094 0.00102336 0.597494V6.28151C0.472822 7.22884 1.39186 8.23458 2.43675 8.71524V7.58796C2.43675 6.99311 2.9127 6.86022 3.10957 6.86022H4.21079C5.72768 6.86022 6.88542 6.5604 7.68405 5.9608C8.48267 5.36204 8.88193 4.47267 8.88193 3.29265C8.8842 2.95169 8.84217 2.61175 8.75684 2.28038C8.67198 1.96268 8.53499 1.65938 8.35087 1.3814ZM6.18054 4.30056C6.05195 4.51062 5.86014 4.68013 5.62936 4.78778C5.37923 4.90009 5.10902 4.96747 4.83263 4.98644C4.53162 5.01169 4.22078 5.02436 3.90012 5.0244H2.85362C2.59763 5.0244 2.43675 4.82827 2.43675 4.53893V2.21505C2.43675 1.95443 2.61728 1.84509 2.83374 1.84509H3.90012C4.24748 1.84509 4.57324 1.85453 4.87739 1.8734C5.15114 1.88516 5.41998 1.94624 5.66931 2.05336C5.89154 2.15292 6.07547 2.31494 6.19574 2.51705C6.32249 2.7249 6.38586 3.01824 6.38596 3.39705C6.38596 3.78167 6.31748 4.08285 6.18054 4.30056ZM2.43675 9.08258C1.28755 8.6504 0.517116 8.13484 0.00102336 7.62373V10.3677C0.00102336 10.3677 -0.041477 10.8152 0.421301 10.8152H2.04617C2.4919 10.8152 2.43694 10.3677 2.43694 10.3677V9.08258H2.43675ZM25.4643 2.99025H24.0061C23.7097 2.99025 23.5144 3.10749 23.3969 3.41425C23.2794 3.721 21.7337 7.77267 21.7337 7.77267C21.7337 7.77267 20.2551 3.80469 20.1388 3.49745C20.0224 3.1902 19.8314 2.99025 19.4871 2.99025H18.1472C17.6745 2.99025 17.6745 3.33972 17.7331 3.47829C17.7806 3.59029 19.6156 8.32391 20.3145 10.1272C20.4793 10.553 20.5444 10.6811 20.5495 10.8388C20.5546 10.9965 20.3842 11.3277 20.2665 11.5177C20.2124 11.6044 20.1503 11.6866 20.0809 11.7631C21.451 11.377 23.0302 9.976 23.8468 8.45827C24.6543 6.34311 25.7192 3.549 25.7653 3.40607C25.8396 3.17456 25.8389 2.99025 25.4643 2.99025ZM19.0252 12.1656C18.8986 12.1635 18.7722 12.1549 18.6466 12.1398C18.4929 12.1207 18.2053 12.1477 18.2053 12.3848V13.4445C18.2053 13.8489 18.4108 13.8759 18.5239 13.8999C18.8641 13.9666 19.2112 13.9982 19.5588 13.994C20.0195 13.994 20.4203 13.9151 20.7613 13.7574C21.1057 13.597 21.4125 13.3734 21.6638 13.0998C21.9409 12.7952 22.175 12.4582 22.3604 12.0972C22.564 11.7092 22.7594 11.2819 22.9466 10.8152C22.9466 10.8152 23.0269 10.6042 23.1591 10.2587C22.7569 10.6408 20.861 12.3329 19.0252 12.1656ZM16.8352 4.24825C16.7561 4.07113 16.648 3.90675 16.5149 3.76109C16.3822 3.62127 16.2304 3.49871 16.0634 3.39665C15.8831 3.28636 15.6919 3.19287 15.4925 3.11749C15.2888 3.04263 15.0793 2.9826 14.8658 2.93794C14.6232 2.88792 14.3769 2.85472 14.1292 2.8386C13.8616 2.81985 13.5608 2.8104 13.2268 2.81025C11.0176 2.81025 9.7597 3.46739 9.45299 4.78169C9.35326 5.18951 9.78189 5.21347 9.78189 5.21347H11.1409C11.4957 5.21347 11.4804 5.10587 11.6526 4.80391C11.7146 4.6396 11.8262 4.49587 11.9737 4.39034C12.2345 4.20124 12.6254 4.10668 13.1465 4.10665C13.6478 4.10665 14.012 4.19801 14.2391 4.38074C14.4662 4.56347 14.5998 4.84102 14.6401 5.21347C14.6401 5.64533 14.4969 5.93347 13.9423 5.93347C12.59 5.88724 11.1368 6.03124 10.3183 6.47289C9.49988 6.91453 9.0372 7.77796 9.0372 8.7052C9.0372 9.08342 9.10903 9.41458 9.25277 9.69871C9.39203 9.97724 9.59792 10.2217 9.85429 10.4129C10.1263 10.6126 10.4381 10.759 10.7713 10.8435C11.15 10.9412 11.5412 10.9891 11.9339 10.9857C12.522 10.9857 13.0416 10.9163 13.4928 10.7774C13.9438 10.6388 14.6417 10.1819 14.7306 10.1152V10.3588C14.7306 10.6002 14.8087 10.8155 15.1147 10.8155H16.695C17.0149 10.8155 17.086 10.6002 17.086 10.3352V5.75298C17.0888 5.46813 17.0688 5.18351 17.026 4.90151C16.9921 4.67702 16.928 4.45751 16.8352 4.24825ZM14.6803 8.74098C14.6803 8.74098 14.2722 9.5388 12.8157 9.5388C12.415 9.5388 12.0893 9.45369 11.8385 9.28347C11.5876 9.11325 11.4623 8.84827 11.4625 8.48862C11.4625 8.02151 11.6663 7.69178 12.0742 7.49947C12.4815 7.30729 13.2972 7.19751 13.9084 7.21098C14.5196 7.22444 14.6803 7.58796 14.6803 7.83893V8.74116V8.74098Z" fill="#333333"/>
</g>
</g>
</g>
</g>
<defs>
<linearGradient id="paint0_linear_2266_21310" x1="58.8758" y1="4.40791" x2="56.1024" y2="22.2055" gradientUnits="userSpaceOnUse">
<stop offset="0.47231" stop-color="#00CCCC"/>
<stop offset="1" stop-color="#3399FF"/>
</linearGradient>
<clipPath id="clip0_2266_21310">
<rect width="51" height="14" fill="white"/>
</clipPath>
</defs>
</svg>
